<svg width="112" height="107" viewBox="0 0 112 107" fill="none" xmlns="http://www.w3.org/2000/svg">
<path fill-rule="evenodd" clip-rule="evenodd" d="M51.975 15.525C31.4719 28.6875 21.5156 42.2719 21.5156 64.9688C22.8656 64.5469 24.0469 64.5469 25.2281 64.5469C35.9437 64.5469 46.3219 71.8031 46.3219 84.8813C46.3219 98.4656 37.6312 106.903 25.2281 106.903C9.19687 106.903 0 94.0781 0 71.0437C0 38.9812 14.7656 15.9469 42.3563 0L51.975 15.525ZM111.037 15.525C90.5344 28.6875 80.5781 42.2719 80.5781 64.9688C81.9281 64.5469 83.1094 64.5469 84.2906 64.5469C95.0062 64.5469 105.384 71.8031 105.384 84.8813C105.384 98.4656 96.6937 106.903 84.2906 106.903C68.3438 106.903 59.1469 94.0781 59.1469 71.0437C59.1469 38.9812 73.9125 15.9469 101.503 0L111.122 15.525H111.037Z" fill="#68B2DA"/>
</svg>
