<svg width="118" height="25" viewBox="0 0 118 25" fill="none" xmlns="http://www.w3.org/2000/svg">
<path d="M3.98116 10.236V15.5H1.23716V1.42533H4.9705C6.52605 1.42533 7.72694 1.77378 8.57317 2.47067C9.41939 3.15511 9.8425 4.26267 9.8425 5.79333C9.8425 7.26178 9.45672 8.36933 8.68516 9.116C7.91361 9.86267 6.79983 10.236 5.34383 10.236H3.98116ZM3.98116 3.70267V7.95867H4.54116C5.42472 7.95867 6.05939 7.80933 6.44516 7.51067C6.84339 7.212 7.0425 6.63333 7.0425 5.77467C7.0425 4.94089 6.83094 4.38711 6.40783 4.11333C5.98472 3.83955 5.33761 3.70267 4.4665 3.70267H3.98116ZM17.3697 12.532H12.479L11.3217 15.5H8.42835L13.9164 1.052H16.0444L21.383 15.5H18.4524L17.3697 12.532ZM16.6044 10.292L14.8497 5.17733H14.8124L13.263 10.292H16.6044ZM24.9629 1.42533V13.1107H28.8456V15.5H22.2189V1.42533H24.9629ZM37.0094 3.81466H32.4734V6.91333H36.8414V9.30267H32.4734V13.1107H37.0094V15.5H29.7294V1.42533H37.0094V3.81466ZM43.4173 3.81466V15.5H40.6733V3.81466H37.8359V1.42533H46.2546V3.81466H43.4173ZM51.8391 3.81466V15.5H49.0951V3.81466H46.2578V1.42533H54.6765V3.81466H51.8391ZM62.9677 3.81466H58.4317V6.91333H62.7997V9.30267H58.4317V13.1107H62.9677V15.5H55.6877V1.42533H62.9677V3.81466Z" fill="url(#paint0_linear_50_107)"/>
<path d="M76.9831 5.27344C76.9831 4.45312 76.7248 3.8546 76.2083 3.47786C75.6918 3.09505 74.8867 2.90364 73.793 2.90364H72.5807V7.50651H73.793C74.911 7.50651 75.7222 7.33029 76.2266 6.97786C76.7309 6.62543 76.9831 6.05729 76.9831 5.27344ZM79.2617 15.5H77.3568L73.0456 8.85547H72.5807V15.5H71.013V1.42708H73.9388C75.4397 1.42708 76.582 1.75521 77.3659 2.41146C78.1558 3.06163 78.5508 3.9974 78.5508 5.21875C78.5508 6.30642 78.2135 7.16927 77.5391 7.80729C76.8707 8.43924 75.941 8.7704 74.75 8.80078L79.2617 15.5ZM82.5885 15.5H81.0208V1.42708H82.5885V15.5ZM97.8828 8.46354C97.8828 6.81684 97.3268 5.43142 96.2148 4.30729C95.1029 3.18316 93.7235 2.62109 92.0768 2.62109C90.3329 2.62109 88.9293 3.19227 87.8659 4.33463C86.8025 5.477 86.2708 6.8533 86.2708 8.46354C86.2708 10.1102 86.8238 11.4957 87.9297 12.6198C89.0356 13.7439 90.418 14.306 92.0768 14.306C93.7175 14.306 95.0938 13.7439 96.2057 12.6198C97.3238 11.4896 97.8828 10.1042 97.8828 8.46354ZM99.4505 8.46354C99.4505 10.5234 98.7396 12.2582 97.3177 13.668C95.8958 15.0777 94.1489 15.7826 92.0768 15.7826C89.9987 15.7826 88.2487 15.0777 86.8268 13.668C85.411 12.2522 84.7031 10.5174 84.7031 8.46354C84.7031 6.37934 85.405 4.63845 86.8086 3.24088C88.2183 1.84332 89.9744 1.14453 92.0768 1.14453C94.1732 1.14453 95.9262 1.84332 97.3359 3.24088C98.7457 4.63845 99.4505 6.37934 99.4505 8.46354ZM107.672 2.83984H104.345V15.5H102.777V2.83984H99.4596V1.42708H107.672V2.83984ZM116.531 11.7448C116.531 12.9965 116.142 13.9839 115.365 14.707C114.587 15.424 113.523 15.7826 112.174 15.7826C111.245 15.7826 110.431 15.5699 109.732 15.1445C109.039 14.7192 108.535 14.1298 108.219 13.3763L109.34 12.4193C109.553 13.0087 109.917 13.4705 110.434 13.8047C110.956 14.1389 111.558 14.306 112.238 14.306C113.089 14.306 113.754 14.0872 114.234 13.6497C114.72 13.2122 114.964 12.5955 114.964 11.7995C114.964 11.1554 114.739 10.5964 114.289 10.1224C113.845 9.64236 113.098 9.1441 112.047 8.6276C110.801 8.01389 109.932 7.41536 109.44 6.83203C108.954 6.2487 108.711 5.51042 108.711 4.61719C108.711 3.57812 109.063 2.73958 109.768 2.10156C110.473 1.46354 111.406 1.14453 112.566 1.14453C113.271 1.14453 113.891 1.28429 114.426 1.5638C114.961 1.83724 115.413 2.25043 115.784 2.80338L114.717 3.79687C114.511 3.42621 114.21 3.13759 113.815 2.93099C113.426 2.72439 112.986 2.62109 112.493 2.62109C111.807 2.62109 111.266 2.79427 110.871 3.14062C110.476 3.48698 110.279 3.95486 110.279 4.54427C110.279 5.07899 110.428 5.52865 110.725 5.89323C111.029 6.25781 111.625 6.68012 112.512 7.16016L112.594 7.19661C115.219 8.60634 116.531 10.1224 116.531 11.7448Z" fill="black"/>
<path d="M4.12622 23.5606C3.85349 23.5606 3.61864 23.4962 3.42167 23.3674C3.2247 23.2386 3.07319 23.0612 2.96713 22.8352C2.86107 22.6092 2.80804 22.351 2.80804 22.0606C2.80804 21.7652 2.86233 21.5044 2.97091 21.2784C3.08076 21.0511 3.23354 20.8737 3.42925 20.7462C3.62622 20.6174 3.85602 20.553 4.11864 20.553C4.32319 20.553 4.50753 20.5909 4.67167 20.6667C4.83581 20.7424 4.97028 20.8485 5.07508 20.9848C5.17988 21.1212 5.2449 21.2803 5.27016 21.4621H4.82319C4.7891 21.3295 4.71334 21.2121 4.59592 21.1098C4.47975 21.0063 4.32319 20.9545 4.12622 20.9545C3.95198 20.9545 3.7992 21 3.66788 21.0909C3.53783 21.1806 3.43619 21.3074 3.36296 21.4716C3.29099 21.6345 3.25501 21.8258 3.25501 22.0455C3.25501 22.2702 3.29036 22.4659 3.36107 22.6326C3.43304 22.7992 3.53405 22.9287 3.6641 23.0208C3.79541 23.113 3.94945 23.1591 4.12622 23.1591C4.24238 23.1591 4.34781 23.1389 4.44251 23.0985C4.5372 23.0581 4.61738 23 4.68304 22.9242C4.74869 22.8485 4.79541 22.7576 4.82319 22.6515H5.27016C5.2449 22.8232 5.1824 22.9779 5.08266 23.1155C4.98417 23.2519 4.85349 23.3605 4.69061 23.4413C4.529 23.5208 4.34086 23.5606 4.12622 23.5606ZM9.66539 23.5606C9.40276 23.5606 9.17233 23.4981 8.9741 23.3731C8.77713 23.2481 8.62309 23.0732 8.51198 22.8485C8.40213 22.6237 8.3472 22.3611 8.3472 22.0606C8.3472 21.7576 8.40213 21.4931 8.51198 21.267C8.62309 21.041 8.77713 20.8655 8.9741 20.7405C9.17233 20.6155 9.40276 20.553 9.66539 20.553C9.92801 20.553 10.1578 20.6155 10.3548 20.7405C10.553 20.8655 10.7071 21.041 10.8169 21.267C10.928 21.4931 10.9836 21.7576 10.9836 22.0606C10.9836 22.3611 10.928 22.6237 10.8169 22.8485C10.7071 23.0732 10.553 23.2481 10.3548 23.3731C10.1578 23.4981 9.92801 23.5606 9.66539 23.5606ZM9.66539 23.1591C9.86488 23.1591 10.029 23.108 10.1578 23.0057C10.2866 22.9034 10.3819 22.7689 10.4438 22.6023C10.5057 22.4356 10.5366 22.2551 10.5366 22.0606C10.5366 21.8662 10.5057 21.685 10.4438 21.517C10.3819 21.3491 10.2866 21.2134 10.1578 21.1098C10.029 21.0063 9.86488 20.9545 9.66539 20.9545C9.46589 20.9545 9.30175 21.0063 9.17296 21.1098C9.04417 21.2134 8.94884 21.3491 8.88698 21.517C8.82511 21.685 8.79417 21.8662 8.79417 22.0606C8.79417 22.2551 8.82511 22.4356 8.88698 22.6023C8.94884 22.7689 9.04417 22.9034 9.17296 23.0057C9.30175 23.108 9.46589 23.1591 9.66539 23.1591ZM14.6728 21.75V23.5H14.2259V20.5909H14.6577V21.0455H14.6956C14.7637 20.8977 14.8673 20.779 15.0062 20.6894C15.1451 20.5985 15.3243 20.553 15.544 20.553C15.741 20.553 15.9134 20.5934 16.0611 20.6742C16.2088 20.7538 16.3237 20.875 16.4058 21.0379C16.4879 21.1995 16.5289 21.404 16.5289 21.6515V23.5H16.0819V21.6818C16.0819 21.4533 16.0226 21.2753 15.9039 21.1477C15.7852 21.0189 15.6223 20.9545 15.4153 20.9545C15.2726 20.9545 15.1451 20.9855 15.0327 21.0473C14.9216 21.1092 14.8338 21.1995 14.7694 21.3182C14.705 21.4369 14.6728 21.5808 14.6728 21.75ZM21.0875 23.5606C20.8147 23.5606 20.5799 23.4962 20.3829 23.3674C20.186 23.2386 20.0344 23.0612 19.9284 22.8352C19.8223 22.6092 19.7693 22.351 19.7693 22.0606C19.7693 21.7652 19.8236 21.5044 19.9322 21.2784C20.042 21.0511 20.1948 20.8737 20.3905 20.7462C20.5875 20.6174 20.8173 20.553 21.0799 20.553C21.2844 20.553 21.4688 20.5909 21.6329 20.6667C21.7971 20.7424 21.9315 20.8485 22.0363 20.9848C22.1411 21.1212 22.2062 21.2803 22.2314 21.4621H21.7844C21.7503 21.3295 21.6746 21.2121 21.5572 21.1098C21.441 21.0063 21.2844 20.9545 21.0875 20.9545C20.9132 20.9545 20.7604 21 20.6291 21.0909C20.4991 21.1806 20.3974 21.3074 20.3242 21.4716C20.2522 21.6345 20.2163 21.8258 20.2163 22.0455C20.2163 22.2702 20.2516 22.4659 20.3223 22.6326C20.3943 22.7992 20.4953 22.9287 20.6253 23.0208C20.7567 23.113 20.9107 23.1591 21.0875 23.1591C21.2036 23.1591 21.3091 23.1389 21.4038 23.0985C21.4985 23.0581 21.5786 23 21.6443 22.9242C21.7099 22.8485 21.7567 22.7576 21.7844 22.6515H22.2314C22.2062 22.8232 22.1437 22.9779 22.0439 23.1155C21.9454 23.2519 21.8147 23.3605 21.6519 23.4413C21.4902 23.5208 21.3021 23.5606 21.0875 23.5606ZM26.6645 23.5606C26.3842 23.5606 26.1424 23.4987 25.9391 23.375C25.7371 23.25 25.5812 23.0758 25.4713 22.8523C25.3627 22.6275 25.3085 22.3662 25.3085 22.0682C25.3085 21.7702 25.3627 21.5076 25.4713 21.2803C25.5812 21.0518 25.734 20.8737 25.9297 20.7462C26.1266 20.6174 26.3564 20.553 26.6191 20.553C26.7706 20.553 26.9202 20.5783 27.0679 20.6288C27.2157 20.6793 27.3501 20.7614 27.4713 20.875C27.5925 20.9874 27.6891 21.1364 27.7611 21.322C27.8331 21.5076 27.8691 21.7361 27.8691 22.0076V22.197H25.6266V21.8106H27.4145C27.4145 21.6465 27.3817 21.5 27.316 21.3712C27.2516 21.2424 27.1595 21.1408 27.0395 21.0663C26.9208 20.9918 26.7807 20.9545 26.6191 20.9545C26.441 20.9545 26.287 20.9987 26.1569 21.0871C26.0282 21.1742 25.929 21.2879 25.8596 21.428C25.7901 21.5682 25.7554 21.7184 25.7554 21.8788V22.1364C25.7554 22.3561 25.7933 22.5423 25.8691 22.6951C25.9461 22.8466 26.0528 22.9621 26.1891 23.0417C26.3255 23.1199 26.484 23.1591 26.6645 23.1591C26.7819 23.1591 26.888 23.1427 26.9827 23.1098C27.0787 23.0758 27.1614 23.0253 27.2308 22.9583C27.3002 22.8902 27.3539 22.8056 27.3918 22.7045L27.8236 22.8258C27.7782 22.9722 27.7018 23.101 27.5944 23.2121C27.4871 23.322 27.3545 23.4078 27.1967 23.4697C27.0389 23.5303 26.8615 23.5606 26.6645 23.5606ZM33.3992 20.5909L32.3235 23.5H31.8689L30.7932 20.5909H31.278L32.081 22.9091H32.1114L32.9144 20.5909H33.3992ZM37.6268 23.5606C37.3642 23.5606 37.1338 23.4981 36.9356 23.3731C36.7386 23.2481 36.5845 23.0732 36.4734 22.8485C36.3636 22.6237 36.3087 22.3611 36.3087 22.0606C36.3087 21.7576 36.3636 21.4931 36.4734 21.267C36.5845 21.041 36.7386 20.8655 36.9356 20.7405C37.1338 20.6155 37.3642 20.553 37.6268 20.553C37.8895 20.553 38.1193 20.6155 38.3162 20.7405C38.5145 20.8655 38.6685 21.041 38.7784 21.267C38.8895 21.4931 38.945 21.7576 38.945 22.0606C38.945 22.3611 38.8895 22.6237 38.7784 22.8485C38.6685 23.0732 38.5145 23.2481 38.3162 23.3731C38.1193 23.4981 37.8895 23.5606 37.6268 23.5606ZM37.6268 23.1591C37.8263 23.1591 37.9905 23.108 38.1193 23.0057C38.2481 22.9034 38.3434 22.7689 38.4053 22.6023C38.4671 22.4356 38.4981 22.2551 38.4981 22.0606C38.4981 21.8662 38.4671 21.685 38.4053 21.517C38.3434 21.3491 38.2481 21.2134 38.1193 21.1098C37.9905 21.0063 37.8263 20.9545 37.6268 20.9545C37.4273 20.9545 37.2632 21.0063 37.1344 21.1098C37.0056 21.2134 36.9103 21.3491 36.8484 21.517C36.7866 21.685 36.7556 21.8662 36.7556 22.0606C36.7556 22.2551 36.7866 22.4356 36.8484 22.6023C36.9103 22.7689 37.0056 22.9034 37.1344 23.0057C37.2632 23.108 37.4273 23.1591 37.6268 23.1591ZM42.1873 23.5V20.5909H42.6343V23.5H42.1873ZM42.4146 20.1061C42.3275 20.1061 42.2523 20.0764 42.1892 20.017C42.1273 19.9577 42.0964 19.8864 42.0964 19.803C42.0964 19.7197 42.1273 19.6484 42.1892 19.589C42.2523 19.5297 42.3275 19.5 42.4146 19.5C42.5017 19.5 42.5762 19.5297 42.6381 19.589C42.7012 19.6484 42.7328 19.7197 42.7328 19.803C42.7328 19.8864 42.7012 19.9577 42.6381 20.017C42.5762 20.0764 42.5017 20.1061 42.4146 20.1061ZM46.0129 23.5V20.5909H46.4448V21.0303H46.4751C46.5281 20.8864 46.6241 20.7696 46.7629 20.6799C46.9018 20.5903 47.0584 20.5455 47.2326 20.5455C47.2655 20.5455 47.3065 20.5461 47.3557 20.5473C47.405 20.5486 47.4422 20.5505 47.4675 20.553V21.0076C47.4523 21.0038 47.4176 20.9981 47.3633 20.9905C47.3103 20.9817 47.2541 20.9773 47.1948 20.9773C47.0533 20.9773 46.9271 21.0069 46.816 21.0663C46.7061 21.1244 46.619 21.2052 46.5546 21.3087C46.4915 21.411 46.4599 21.5278 46.4599 21.6591V23.5H46.0129ZM55.0643 19.6212V23.5H54.6173V19.6212H55.0643ZM62.3514 20.8333V20.4924C62.3514 20.3889 62.3697 20.279 62.4064 20.1629C62.4442 20.0455 62.4985 19.9324 62.5692 19.8239C62.6412 19.714 62.7277 19.6187 62.8287 19.5379L63.0711 19.7348C62.9916 19.8485 62.9221 19.9672 62.8628 20.0909C62.8047 20.2134 62.7757 20.3447 62.7757 20.4848V20.8333H62.3514ZM67.3451 23.5606C67.0648 23.5606 66.823 23.4987 66.6198 23.375C66.4177 23.25 66.2618 23.0758 66.152 22.8523C66.0434 22.6275 65.9891 22.3662 65.9891 22.0682C65.9891 21.7702 66.0434 21.5076 66.152 21.2803C66.2618 21.0518 66.4146 20.8737 66.6103 20.7462C66.8073 20.6174 67.0371 20.553 67.2997 20.553C67.4512 20.553 67.6008 20.5783 67.7486 20.6288C67.8963 20.6793 68.0307 20.7614 68.152 20.875C68.2732 20.9874 68.3698 21.1364 68.4417 21.322C68.5137 21.5076 68.5497 21.7361 68.5497 22.0076V22.197H66.3073V21.8106H68.0951C68.0951 21.6465 68.0623 21.5 67.9967 21.3712C67.9323 21.2424 67.8401 21.1408 67.7201 21.0663C67.6015 20.9918 67.4613 20.9545 67.2997 20.9545C67.1217 20.9545 66.9676 20.9987 66.8376 21.0871C66.7088 21.1742 66.6097 21.2879 66.5402 21.428C66.4708 21.5682 66.4361 21.7184 66.4361 21.8788V22.1364C66.4361 22.3561 66.4739 22.5423 66.5497 22.6951C66.6267 22.8466 66.7334 22.9621 66.8698 23.0417C67.0061 23.1199 67.1646 23.1591 67.3451 23.1591C67.4626 23.1591 67.5686 23.1427 67.6633 23.1098C67.7593 23.0758 67.842 23.0253 67.9114 22.9583C67.9809 22.8902 68.0345 22.8056 68.0724 22.7045L68.5042 22.8258C68.4588 22.9722 68.3824 23.101 68.2751 23.2121C68.1677 23.322 68.0352 23.4078 67.8773 23.4697C67.7195 23.5303 67.5421 23.5606 67.3451 23.5606ZM72.0448 20.5909L72.7418 21.7803L73.4388 20.5909H73.9539L73.0145 22.0455L73.9539 23.5H73.4388L72.7418 22.3712L72.0448 23.5H71.5297L72.4539 22.0455L71.5297 20.5909H72.0448ZM78.2137 23.5606C77.941 23.5606 77.7061 23.4962 77.5092 23.3674C77.3122 23.2386 77.1607 23.0612 77.0546 22.8352C76.9486 22.6092 76.8955 22.351 76.8955 22.0606C76.8955 21.7652 76.9498 21.5044 77.0584 21.2784C77.1683 21.0511 77.321 20.8737 77.5167 20.7462C77.7137 20.6174 77.9435 20.553 78.2061 20.553C78.4107 20.553 78.595 20.5909 78.7592 20.6667C78.9233 20.7424 79.0578 20.8485 79.1626 20.9848C79.2674 21.1212 79.3324 21.2803 79.3577 21.4621H78.9107C78.8766 21.3295 78.8008 21.2121 78.6834 21.1098C78.5673 21.0063 78.4107 20.9545 78.2137 20.9545C78.0395 20.9545 77.8867 21 77.7554 21.0909C77.6253 21.1806 77.5237 21.3074 77.4505 21.4716C77.3785 21.6345 77.3425 21.8258 77.3425 22.0455C77.3425 22.2702 77.3779 22.4659 77.4486 22.6326C77.5205 22.7992 77.6215 22.9287 77.7516 23.0208C77.8829 23.113 78.037 23.1591 78.2137 23.1591C78.3299 23.1591 78.4353 23.1389 78.53 23.0985C78.6247 23.0581 78.7049 23 78.7705 22.9242C78.8362 22.8485 78.8829 22.7576 78.9107 22.6515H79.3577C79.3324 22.8232 79.2699 22.9779 79.1702 23.1155C79.0717 23.2519 78.941 23.3605 78.7781 23.4413C78.6165 23.5208 78.4284 23.5606 78.2137 23.5606ZM83.7908 23.5606C83.5105 23.5606 83.2687 23.4987 83.0654 23.375C82.8634 23.25 82.7074 23.0758 82.5976 22.8523C82.489 22.6275 82.4347 22.3662 82.4347 22.0682C82.4347 21.7702 82.489 21.5076 82.5976 21.2803C82.7074 21.0518 82.8602 20.8737 83.0559 20.7462C83.2529 20.6174 83.4827 20.553 83.7453 20.553C83.8968 20.553 84.0464 20.5783 84.1942 20.6288C84.3419 20.6793 84.4764 20.7614 84.5976 20.875C84.7188 20.9874 84.8154 21.1364 84.8874 21.322C84.9593 21.5076 84.9953 21.7361 84.9953 22.0076V22.197H82.7529V21.8106H84.5408C84.5408 21.6465 84.5079 21.5 84.4423 21.3712C84.3779 21.2424 84.2857 21.1408 84.1658 21.0663C84.0471 20.9918 83.9069 20.9545 83.7453 20.9545C83.5673 20.9545 83.4132 20.9987 83.2832 21.0871C83.1544 21.1742 83.0553 21.2879 82.9858 21.428C82.9164 21.5682 82.8817 21.7184 82.8817 21.8788V22.1364C82.8817 22.3561 82.9196 22.5423 82.9953 22.6951C83.0723 22.8466 83.179 22.9621 83.3154 23.0417C83.4518 23.1199 83.6102 23.1591 83.7908 23.1591C83.9082 23.1591 84.0143 23.1427 84.1089 23.1098C84.2049 23.0758 84.2876 23.0253 84.3571 22.9583C84.4265 22.8902 84.4802 22.8056 84.518 22.7045L84.9499 22.8258C84.9044 22.9722 84.828 23.101 84.7207 23.2121C84.6134 23.322 84.4808 23.4078 84.323 23.4697C84.1651 23.5303 83.9877 23.5606 83.7908 23.5606ZM88.6822 19.6212V23.5H88.2352V19.6212H88.6822ZM92.5078 19.6212V23.5H92.0609V19.6212H92.5078ZM97.1062 23.5606C96.8259 23.5606 96.5841 23.4987 96.3808 23.375C96.1788 23.25 96.0228 23.0758 95.913 22.8523C95.8044 22.6275 95.7501 22.3662 95.7501 22.0682C95.7501 21.7702 95.8044 21.5076 95.913 21.2803C96.0228 21.0518 96.1756 20.8737 96.3713 20.7462C96.5683 20.6174 96.7981 20.553 97.0607 20.553C97.2122 20.553 97.3619 20.5783 97.5096 20.6288C97.6573 20.6793 97.7918 20.7614 97.913 20.875C98.0342 20.9874 98.1308 21.1364 98.2028 21.322C98.2747 21.5076 98.3107 21.7361 98.3107 22.0076V22.197H96.0683V21.8106H97.8562C97.8562 21.6465 97.8234 21.5 97.7577 21.3712C97.6933 21.2424 97.6011 21.1408 97.4812 21.0663C97.3625 20.9918 97.2223 20.9545 97.0607 20.9545C96.8827 20.9545 96.7287 20.9987 96.5986 21.0871C96.4698 21.1742 96.3707 21.2879 96.3013 21.428C96.2318 21.5682 96.1971 21.7184 96.1971 21.8788V22.1364C96.1971 22.3561 96.235 22.5423 96.3107 22.6951C96.3877 22.8466 96.4944 22.9621 96.6308 23.0417C96.7672 23.1199 96.9256 23.1591 97.1062 23.1591C97.2236 23.1591 97.3297 23.1427 97.4244 23.1098C97.5203 23.0758 97.603 23.0253 97.6725 22.9583C97.7419 22.8902 97.7956 22.8056 97.8335 22.7045L98.2653 22.8258C98.2198 22.9722 98.1434 23.101 98.0361 23.2121C97.9288 23.322 97.7962 23.4078 97.6384 23.4697C97.4806 23.5303 97.3032 23.5606 97.1062 23.5606ZM101.998 21.75V23.5H101.551V20.5909H101.982V21.0455H102.02C102.089 20.8977 102.192 20.779 102.331 20.6894C102.47 20.5985 102.649 20.553 102.869 20.553C103.066 20.553 103.238 20.5934 103.386 20.6742C103.534 20.7538 103.649 20.875 103.731 21.0379C103.813 21.1995 103.854 21.404 103.854 21.6515V23.5H103.407V21.6818C103.407 21.4533 103.347 21.2753 103.229 21.1477C103.11 21.0189 102.947 20.9545 102.74 20.9545C102.597 20.9545 102.47 20.9855 102.357 21.0473C102.246 21.1092 102.159 21.1995 102.094 21.3182C102.03 21.4369 101.998 21.5808 101.998 21.75ZM108.412 23.5606C108.14 23.5606 107.905 23.4962 107.708 23.3674C107.511 23.2386 107.359 23.0612 107.253 22.8352C107.147 22.6092 107.094 22.351 107.094 22.0606C107.094 21.7652 107.148 21.5044 107.257 21.2784C107.367 21.0511 107.52 20.8737 107.715 20.7462C107.912 20.6174 108.142 20.553 108.405 20.553C108.609 20.553 108.794 20.5909 108.958 20.6667C109.122 20.7424 109.256 20.8485 109.361 20.9848C109.466 21.1212 109.531 21.2803 109.556 21.4621H109.109C109.075 21.3295 108.999 21.2121 108.882 21.1098C108.766 21.0063 108.609 20.9545 108.412 20.9545C108.238 20.9545 108.085 21 107.954 21.0909C107.824 21.1806 107.722 21.3074 107.649 21.4716C107.577 21.6345 107.541 21.8258 107.541 22.0455C107.541 22.2702 107.576 22.4659 107.647 22.6326C107.719 22.7992 107.82 22.9287 107.95 23.0208C108.081 23.113 108.235 23.1591 108.412 23.1591C108.528 23.1591 108.634 23.1389 108.729 23.0985C108.823 23.0581 108.903 23 108.969 22.9242C109.035 22.8485 109.081 22.7576 109.109 22.6515H109.556C109.531 22.8232 109.468 22.9779 109.369 23.1155C109.27 23.2519 109.14 23.3605 108.977 23.4413C108.815 23.5208 108.627 23.5606 108.412 23.5606ZM113.989 23.5606C113.709 23.5606 113.467 23.4987 113.264 23.375C113.062 23.25 112.906 23.0758 112.796 22.8523C112.688 22.6275 112.633 22.3662 112.633 22.0682C112.633 21.7702 112.688 21.5076 112.796 21.2803C112.906 21.0518 113.059 20.8737 113.254 20.7462C113.451 20.6174 113.681 20.553 113.944 20.553C114.095 20.553 114.245 20.5783 114.393 20.6288C114.54 20.6793 114.675 20.7614 114.796 20.875C114.917 20.9874 115.014 21.1364 115.086 21.322C115.158 21.5076 115.194 21.7361 115.194 22.0076V22.197H112.951V21.8106H114.739C114.739 21.6465 114.706 21.5 114.641 21.3712C114.576 21.2424 114.484 21.1408 114.364 21.0663C114.246 20.9918 114.105 20.9545 113.944 20.9545C113.766 20.9545 113.612 20.9987 113.482 21.0871C113.353 21.1742 113.254 21.2879 113.184 21.428C113.115 21.5682 113.08 21.7184 113.08 21.8788V22.1364C113.08 22.3561 113.118 22.5423 113.194 22.6951C113.271 22.8466 113.378 22.9621 113.514 23.0417C113.65 23.1199 113.809 23.1591 113.989 23.1591C114.107 23.1591 114.213 23.1427 114.307 23.1098C114.403 23.0758 114.486 23.0253 114.556 22.9583C114.625 22.8902 114.679 22.8056 114.717 22.7045L115.148 22.8258C115.103 22.9722 115.027 23.101 114.919 23.2121C114.812 23.322 114.679 23.4078 114.522 23.4697C114.364 23.5303 114.186 23.5606 113.989 23.5606Z" fill="black"/>
<defs>
<linearGradient id="paint0_linear_50_107" x1="-2.26024e-09" y1="8.16667" x2="69.2598" y2="8.7503" gradientUnits="userSpaceOnUse">
<stop stop-color="#12C2E9"/>
<stop offset="0.5" stop-color="#C471ED"/>
<stop offset="1" stop-color="#F64F59"/>
</linearGradient>
</defs>
</svg>
